<svg xmlns="http://www.w3.org/2000/svg" width="79" height="79" viewBox="0 0 79 79">
  <g id="icon" transform="translate(1 11)">
    <rect id="bg" width="79" height="79" rx="24" transform="translate(-1 -11)" fill="#fff"/>
    <g id="barcode" transform="translate(8 -0.196)">
      <path id="Vector" d="M0,0H59V59H0Z" fill="none" opacity="0"/>
      <path id="Vector-2" data-name="Vector" d="M36.875,0H12.292C4.917,0,0,3.688,0,12.292V29.5c0,8.6,4.917,12.292,12.292,12.292H36.875c7.375,0,12.292-3.687,12.292-12.292V12.292C49.167,3.688,44.25,0,36.875,0Zm-25.2,30.729a1.844,1.844,0,1,1-3.687,0V11.063a1.844,1.844,0,1,1,3.687,0Zm7.375,0a1.844,1.844,0,0,1-3.688,0V28.271a1.844,1.844,0,0,1,3.688,0Zm0-9.833a1.844,1.844,0,1,1-3.688,0V11.063a1.844,1.844,0,0,1,3.688,0Zm7.375,9.833a1.844,1.844,0,0,1-3.688,0V11.063a1.844,1.844,0,0,1,3.688,0Zm7.375,0a1.844,1.844,0,1,1-3.687,0V20.9a1.844,1.844,0,1,1,3.687,0Zm0-17.208a1.844,1.844,0,1,1-3.687,0V11.063a1.844,1.844,0,1,1,3.687,0Zm7.375,17.208a1.844,1.844,0,0,1-3.687,0V11.063a1.844,1.844,0,0,1,3.688,0Z" transform="translate(4.917 8.604)" fill="#ff544f"/>
    </g>
  </g>
</svg>
