<svg id="pass" xmlns="http://www.w3.org/2000/svg" width="26.898" height="26.898" viewBox="0 0 26.898 26.898">
  <g id="key" transform="translate(0 0)">
    <path id="Vector" d="M18.571,24.081a3.174,3.174,0,0,0,.336-.022l2.432-.336a2.943,2.943,0,0,0,2.4-2.387l.336-2.454a3.091,3.091,0,0,0-.785-2.376l-4.92-4.92A9.333,9.333,0,0,0,2.723,2.719a9.316,9.316,0,0,0,8.865,15.623l4.931,4.92A3.017,3.017,0,0,0,18.571,24.081ZM9.325,1.677a7.645,7.645,0,0,1,7.307,9.907.835.835,0,0,0,.213.841l5.268,5.268a1.447,1.447,0,0,1,.314.941l-.336,2.454a1.285,1.285,0,0,1-.953.964l-2.443.336a1.389,1.389,0,0,1-.953-.3l-5.29-5.279a.836.836,0,0,0-.841-.2,7.642,7.642,0,0,1-7.666-12.7A7.539,7.539,0,0,1,9.325,1.677Z" transform="translate(1.401 1.416)" fill="#f77860"/>
    <path id="Vector-2" data-name="Vector" d="M.838,4.256a.831.831,0,0,0,.594-.247L4.009,1.432A.84.84,0,0,0,2.821.244L.244,2.821a.846.846,0,0,0,0,1.188A.831.831,0,0,0,.838,4.256Z" transform="translate(15.76 18.764)" fill="#f77860"/>
    <path id="Vector-3" data-name="Vector" d="M2.522,5.043A2.522,2.522,0,1,0,0,2.522,2.525,2.525,0,0,0,2.522,5.043Zm0-3.362a.841.841,0,1,1-.841.841A.847.847,0,0,1,2.522,1.681Z" transform="translate(8.125 8.125)" fill="#f77860"/>
    <path id="Vector-4" data-name="Vector" d="M26.9,0H0V26.9H26.9Z" fill="none" opacity="0"/>
  </g>
</svg>
