<svg xmlns="http://www.w3.org/2000/svg" version="1.1" xmlns:xlink="http://www.w3.org/1999/xlink" width="512" height="512" x="0" y="0" viewBox="0 0 512 512" style="enable-background:new 0 0 512 512" xml:space="preserve" class=""><g><path d="M465.465 7.849H46.535c-25.074 0-45.526 20.4-45.526 45.474v298.234c0 25.074 20.452 45.473 45.526 45.473h132.011a99.543 99.543 0 0 0 17.902 22.312l-20.824 43.296c-3.506 7.118 3.294 14.98 11.156 12.536l23.427-8.287 8.234 23.587c2.869 7.49 13.281 7.915 16.734.743l21.674-45.102c8.234.691 8.553.372 9.934.319 29.536 50.361 27.89 58.648 38.089 57.639 3.612-.372 6.64-2.868 7.756-6.428l6.959-23.905 23.852 6.906c7.756 2.231 14.343-6.162 10.412-13.068l-24.649-44.676c8.659-7.279 15.99-16.096 21.78-25.872h114.481c25.127 0 45.527-20.399 45.527-45.473V53.323c.001-25.074-20.398-45.474-45.525-45.474zM264.818 435.916c-50.627 0-92.647-42.392-89.141-95.25 3.028-47.387 42.446-83.51 89.141-83.51 48.236 0 89.353 39.311 89.353 89.406.001 49.14-40.001 89.354-89.353 89.354zM134.72 194.206h242.56a5.293 5.293 0 0 1 5.312 5.312c0 2.922-2.391 5.312-5.312 5.312H134.72c-2.922 0-5.312-2.39-5.312-5.312a5.293 5.293 0 0 1 5.312-5.312zm-14.45-53.549v-25.87c0-8.022 6.481-14.503 14.45-14.503h242.56c7.968 0 14.503 6.481 14.503 14.503v25.87c0 7.968-6.534 14.449-14.503 14.449H134.72c-7.969.001-14.45-6.48-14.45-14.449zm380.097 210.9c0 19.177-15.671 34.848-34.902 34.848H356.562a100.378 100.378 0 0 0 8.128-37.558h58.223c2.922 0 5.312-2.391 5.312-5.312 0-16.149 13.121-29.271 29.218-29.271 2.922 0 5.312-2.391 5.312-5.312V95.928a5.294 5.294 0 0 0-5.312-5.312c-16.096 0-29.218-13.121-29.218-29.218a5.294 5.294 0 0 0-5.312-5.312H89.087a5.293 5.293 0 0 0-5.312 5.312c0 16.096-13.121 29.218-29.218 29.218a5.293 5.293 0 0 0-5.312 5.312v213.024c0 2.921 2.391 5.312 5.312 5.312 16.096 0 29.218 13.122 29.218 29.271 0 2.921 2.391 5.312 5.312 5.312h75.754c.319 12.909 2.869 25.34 8.128 37.558H46.535c-19.231 0-34.902-15.671-34.902-34.848V53.323c0-19.231 15.671-34.849 34.902-34.849h418.93c19.231 0 34.902 15.619 34.902 34.849z" fill="#1C9667" opacity="1" data-original="#000000"></path><path d="M264.818 288.021c-32.299 0-58.542 26.243-58.542 58.542 0 32.193 26.243 58.436 58.542 58.436 32.193 0 58.436-26.243 58.436-58.436 0-32.299-26.243-58.542-58.436-58.542zm0 106.353c-26.402 0-47.917-21.462-47.917-47.811 0-26.402 21.515-47.917 47.917-47.917 26.349 0 47.811 21.515 47.811 47.917 0 26.349-21.461 47.811-47.811 47.811z" fill="#1C9667" opacity="1" data-original="#000000"></path></g></svg>