<svg xmlns="http://www.w3.org/2000/svg" version="1.1" xmlns:xlink="http://www.w3.org/1999/xlink" width="512" height="512" x="0" y="0" viewBox="0 0 60 60" style="enable-background:new 0 0 512 512" xml:space="preserve" class=""><g><path fill="#CAE7DC" d="M27.616 4.589 4.06 10.29a4 4 0 0 0-2.95 4.83l9.88 40.82a4 4 0 0 0 4.83 2.95l30.625-7.419z" opacity="1" data-original="#f3d55b" class=""></path><g fill="#3F5C6C"><path d="M6.678 17.858a1 1 0 0 1-.235-1.971l1.944-.471a1 1 0 1 1 .47 1.943l-1.943.471a.957.957 0 0 1-.236.028zM13.479 16.21a1 1 0 0 1-.234-1.972l7.52-1.82a1 1 0 1 1 .47 1.943l-7.519 1.821a1.01 1.01 0 0 1-.237.028zM7.854 22.718a1 1 0 0 1-.235-1.972l1.944-.471a1 1 0 1 1 .471 1.944l-1.944.47a.959.959 0 0 1-.236.029zM14.659 21.07a1 1 0 0 1-.233-1.971l6.34-1.531a1 1 0 0 1 .468 1.944l-6.334 1.53a.957.957 0 0 1-.241.028zM9.03 27.578a1 1 0 0 1-.23-1.972l1.943-.47a1 1 0 1 1 .471 1.943l-1.943.471a1.022 1.022 0 0 1-.241.028zM15.829 25.93a1 1 0 0 1-.234-1.972l5.17-1.25a1 1 0 1 1 .47 1.943l-5.17 1.25a.959.959 0 0 1-.236.029zM10.206 32.438a1 1 0 0 1-.234-1.972L11.916 30a1 1 0 1 1 .471 1.943l-1.945.471a.959.959 0 0 1-.236.024zM17.009 30.79a1 1 0 0 1-.236-1.972l3.991-.969a1 1 0 1 1 .472 1.943l-3.99.97a1.016 1.016 0 0 1-.237.028z" fill="#1C9667" opacity="1" data-original="#3f5c6c" class=""></path></g><path fill="#D7EDE5" d="M51 51h4a4 4 0 0 0 4-4V5a4 4 0 0 0-4-4H25a4 4 0 0 0-4 4v42a4 4 0 0 0 4 4z" opacity="1" data-original="#f9eab0" class=""></path><path fill="#F99B89" d="M51 44.02V58a1 1 0 0 1-1.707.707l-2.586-2.586a1 1 0 0 0-1.414 0l-2.586 2.586A1 1 0 0 1 41 58V44.02z" opacity="1" data-original="#c03a2b" class=""></path><path fill="#F77860" d="m46.9 28.371.167-.107a1.666 1.666 0 0 1 2.379.637l.091.177a1.666 1.666 0 0 0 1.557.9l.2-.01a1.667 1.667 0 0 1 1.741 1.741l-.01.2a1.666 1.666 0 0 0 .9 1.557l.177.091a1.666 1.666 0 0 1 .637 2.379l-.107.167a1.667 1.667 0 0 0 0 1.8l.107.167a1.666 1.666 0 0 1-.637 2.379l-.177.091a1.666 1.666 0 0 0-.9 1.557l.01.2a1.667 1.667 0 0 1-1.741 1.741l-.2-.01a1.666 1.666 0 0 0-1.557.9l-.091.177a1.666 1.666 0 0 1-2.379.637l-.167-.107a1.667 1.667 0 0 0-1.8 0l-.167.107a1.666 1.666 0 0 1-2.379-.637l-.091-.177a1.666 1.666 0 0 0-1.557-.9l-.2.01a1.667 1.667 0 0 1-1.741-1.741l.01-.2a1.666 1.666 0 0 0-.9-1.557l-.177-.091a1.666 1.666 0 0 1-.637-2.379l.107-.167a1.667 1.667 0 0 0 0-1.8l-.107-.167a1.666 1.666 0 0 1 .637-2.379l.177-.091a1.666 1.666 0 0 0 .9-1.557l-.01-.2a1.667 1.667 0 0 1 1.741-1.741l.2.01a1.666 1.666 0 0 0 1.557-.9l.091-.177a1.666 1.666 0 0 1 2.379-.637l.167.107a1.667 1.667 0 0 0 1.8 0z" opacity="1" data-original="#e64c3c" class=""></path><path fill="#1C9667" d="M28 9h-2a1 1 0 0 1 0-2h2a1 1 0 0 1 0 2zM54 9H33a1 1 0 0 1 0-2h21a1 1 0 0 1 0 2z" opacity="1" data-original="#3f5c6c" class=""></path><circle cx="46" cy="37" r="5" fill="#F99B89" opacity="1" data-original="#e57e25" class=""></circle><path fill="#1C9667" d="M28 14h-2a1 1 0 0 1 0-2h2a1 1 0 0 1 0 2zM54 14H33a1 1 0 0 1 0-2h21a1 1 0 0 1 0 2zM28 19h-2a1 1 0 0 1 0-2h2a1 1 0 0 1 0 2zM54 19H33a1 1 0 0 1 0-2h21a1 1 0 0 1 0 2zM28 24h-2a1 1 0 0 1 0-2h2a1 1 0 0 1 0 2zM38 24h-5a1 1 0 0 1 0-2h5a1 1 0 0 1 0 2z" opacity="1" data-original="#3f5c6c" class=""></path></g></svg>