<svg xmlns="http://www.w3.org/2000/svg" version="1.1" xmlns:xlink="http://www.w3.org/1999/xlink" width="512" height="512" x="0" y="0" viewBox="0 0 36 36" style="enable-background:new 0 0 512 512" xml:space="preserve" class=""><g><g fill-rule="evenodd"><path fill="#F77860" d="M18.23 10a8 8 0 1 0 8 8 8 8 0 0 0-8-8zm3.66 7.31-3.57 3.57a1.15 1.15 0 0 1-1.61 0l-2.15-2.14a1.16 1.16 0 0 1 0-1.62 1.14 1.14 0 0 1 1.62 0l1.33 1.34 2.77-2.77a1.14 1.14 0 0 1 1.61 1.62z" opacity="1" data-original="#072a30" class=""></path><path fill="#F77860" d="M31 13a2.09 2.09 0 0 1-.32-.79l-.89-4.38A2.29 2.29 0 0 0 28 6.05l-4.29-.89a2.18 2.18 0 0 1-.8-.34l-3.64-2.43a2.26 2.26 0 0 0-2.54 0l-3.64 2.43a2.15 2.15 0 0 1-.81.34L8 6.05a2.29 2.29 0 0 0-1.77 1.79l-.89 4.38A2.48 2.48 0 0 1 5 13l-2.42 3.75a2.31 2.31 0 0 0 0 2.5L5 23a2.48 2.48 0 0 1 .32.79l.89 4.38A2.29 2.29 0 0 0 8 30l4.28.89a2.15 2.15 0 0 1 .81.34l3.64 2.43a2.26 2.26 0 0 0 2.54 0l3.64-2.43a2.18 2.18 0 0 1 .8-.34L28 30a2.29 2.29 0 0 0 1.77-1.79l.89-4.38A2.09 2.09 0 0 1 31 23l2.44-3.75a2.28 2.28 0 0 0 0-2.48zM18.23 28.28A10.28 10.28 0 1 1 28.51 18a10.3 10.3 0 0 1-10.28 10.28z" opacity="1" data-original="#43d685" class=""></path></g></g></svg>