<svg xmlns="http://www.w3.org/2000/svg" version="1.1" xmlns:xlink="http://www.w3.org/1999/xlink" width="512" height="512" x="0" y="0" viewBox="0 0 24 24" style="enable-background:new 0 0 512 512" xml:space="preserve" class=""><g><path d="M16 10c-1.431 0-2.861-.424-4.283-1.271A1.498 1.498 0 0 1 11 7.443V4.5a.5.5 0 0 1 1 0v2.943a.5.5 0 0 0 .229.426c2.538 1.514 5.004 1.514 7.541 0 .14-.083.23-.25.23-.426V4.5a.5.5 0 0 1 1 0v2.943c0 .529-.275 1.021-.718 1.285C18.861 9.576 17.431 10 16 10z" fill="#CD3151" opacity="1" data-original="#000000" class=""></path><path d="M16 7a.508.508 0 0 1-.209-.046l-6.5-3a.5.5 0 0 1 0-.908l6.5-3a.503.503 0 0 1 .419 0l6.5 3a.5.5 0 0 1-.001.908l-6.5 3A.508.508 0 0 1 16 7zm-5.307-3.5L16 5.949 21.307 3.5 16 1.051zM1.5 18a.5.5 0 0 1-.5-.5v-15C1 1.121 2.122 0 3.5 0h6a.5.5 0 0 1 0 1h-6C2.673 1 2 1.673 2 2.5v15a.5.5 0 0 1-.5.5z" fill="#CD3151" opacity="1" data-original="#000000" class=""></path><path d="M7.5 20h-4C2.122 20 1 18.879 1 17.5S2.122 15 3.5 15H18v-2.5a.5.5 0 0 1 1 0v3a.5.5 0 0 1-.5.5h-15c-.827 0-1.5.673-1.5 1.5S2.673 19 3.5 19h4a.5.5 0 0 1 0 1z" fill="#CD3151" opacity="1" data-original="#000000" class=""></path><path d="M18.5 20h-6a.5.5 0 0 1 0-1H18v-3.5a.5.5 0 0 1 1 0v4a.5.5 0 0 1-.5.5z" fill="#CD3151" opacity="1" data-original="#000000" class=""></path><path d="M12.5 24a.505.505 0 0 1-.313-.109L10 22.141l-2.188 1.75A.5.5 0 0 1 7 23.5v-6a.5.5 0 0 1 1 0v4.96l1.688-1.351a.5.5 0 0 1 .625 0L12 22.46V17.5a.5.5 0 0 1 1 0v6a.499.499 0 0 1-.5.5z" fill="#CD3151" opacity="1" data-original="#000000" class=""></path><path d="M14.5 18h-9a.5.5 0 0 1 0-1h9a.5.5 0 0 1 0 1z" fill="#CD3151" opacity="1" data-original="#000000" class=""></path></g></svg>