<svg xmlns="http://www.w3.org/2000/svg" width="22.5" height="22.5" viewBox="172.75 190.75 22.5 22.5"><g data-name="category-2"><path d="M190.504 192.75h-1.568c-1.798 0-2.746.948-2.746 2.746v1.568c0 1.798.948 2.746 2.746 2.746h1.568c1.798 0 2.746-.948 2.746-2.746v-1.568c0-1.798-.948-2.746-2.746-2.746Z" stroke-linejoin="round" stroke-linecap="round" stroke-width="1.237155" stroke="#1a577d" fill="transparent" data-name="Vector"/><path d="M5.24 0h-1.9C1.15 0 0 1.15 0 3.33v1.9c0 2.19 1.15 3.34 3.33 3.34h1.9c2.18 0 3.33-1.15 3.33-3.33v-1.9C8.57 1.15 7.42 0 5.24 0Z" stroke-linejoin="round" stroke-linecap="round" stroke-width="1.5" stroke="#1a577d" fill="transparent" transform="matrix(.82477 0 0 .82497 174.75 204.18)" data-name="Vector"/><path d="M181.83 196.29a3.54 3.54 0 1 1-7.08 0 3.54 3.54 0 0 1 7.08 0ZM193.25 207.71a3.54 3.54 0 1 1-7.08 0 3.54 3.54 0 0 1 7.08 0Z" stroke-linejoin="round" stroke-linecap="round" stroke-width="1.237755" stroke="#1a577d" fill="transparent" data-name="Vector"/><path d="M195.25 213.25h-22.5v-22.5h22.5v22.5Z" stroke-linejoin="round" stroke-linecap="round" stroke-width="1.40625" stroke="#1a577d" fill="transparent" data-name="Vector"/></g></svg> 