<svg xmlns="http://www.w3.org/2000/svg" version="1.1" xmlns:xlink="http://www.w3.org/1999/xlink" width="512" height="512" x="0" y="0" viewBox="0 0 512 512" style="enable-background:new 0 0 512 512" xml:space="preserve" class=""><g><path d="m434.818 425.798 29.517 26.996a182.553 182.553 0 0 0 25.956-36.524l-35.208-18.985a142.47 142.47 0 0 1-20.265 28.513zM376.922 464.07l13.212 37.755a181.548 181.548 0 0 0 40.158-19.93l-22.067-33.362a141.554 141.554 0 0 1-31.303 15.537zM310 320.772l-42.195 35.99 25.958 30.434L350 339.228V234h-40zM467.731 364.713l38.795 9.743A182.651 182.651 0 0 0 512 330h-40c0 11.756-1.436 23.435-4.269 34.713z" fill="#4832B8" opacity="1" data-original="#000000" class=""></path><path d="M452 40h-24V0h-40v40H124V0H84v40H60C26.916 40 0 66.916 0 100v352c0 33.084 26.916 60 60 60h142.785a224.8 224.8 0 0 1-29.763-25.022A226.375 226.375 0 0 1 159.346 472H60c-11.028 0-20-8.972-20-20V187h119.347a224.673 224.673 0 0 1 43.439-40H40v-47c0-11.028 8.972-20 20-20h24v40h40V80h264v40h40V80h24c11.028 0 20 8.972 20 20v36h40v-36c0-33.084-26.916-60-60-60z" fill="#4832B8" opacity="1" data-original="#000000" class=""></path><path d="M472 216.052C438.018 173.649 386.214 148 330 148c-100.355 0-182 81.645-182 182 0 100.354 81.644 181.999 181.998 182h.019c5.428 0 10.911-.243 16.295-.722l-3.546-39.843c-4.211.375-8.5.565-12.75.565h-.015L330 492v-20c-78.299 0-142-63.701-142-142s63.701-142 142-142c45.983 0 88.17 22.007 114.534 58H402v40h110V176h-40v40.052z" fill="#4832B8" opacity="1" data-original="#000000" class=""></path></g></svg>