<?xml version="1.0" encoding="UTF-8"?>
<svg version="1.1" viewBox="0 0 2048 2048" width="1280" height="1280" xmlns="http://www.w3.org/2000/svg">
<path transform="translate(1099,191)" d="m0 0h76l43 2 27 3 16 4 17 6 21 11 12 8 14 11 10 9 16 16 7 8 10 11 11 14 12 13 11 14 9 10 10 13 12 14 8 10 13 15 9 11 13 15 9 11 12 14 8 10 12 14 8 10 9 10 9 11 12 14 13 15 9 11 12 14 9 11 11 13 9 11 12 15 11 15 15 23 12 22 10 22 9 28 4 21 2 19 1 16 1 42v1051l-5 2h-237l-939 1h-158l-4-3-1-13-1-32v-1562l1-35 1-14 2-4zm-617 127-3 2-1 207v1200l1 1 1011 1 73-1 4-1v-21l-1-57-2-345-1-116-1-317-1-87-1-26-2-15-5-16-4-9-7-11-10-11-8-7-20-15-19-12-15-9-25-14-33-17-42-21-23-11-41-20-20-9-28-13-6-4h-2l4-10 12-16 14-24 14-28 10-26 5-19 2-12v-16l-4-15-6-12-7-9-5-6-12-9-15-8-17-6-25-5-29-3-20-1-47-1z" fill="#4B82A2"/>
<path transform="translate(706,1087)" d="m0 0h431l204 1 3 3-1 121-1 1-7 1-397 1h-233l-2-3-1-12v-59l1-47 1-6z" fill="#4B82A2"/>
<path transform="translate(710,831)" d="m0 0 626 1 7 2 1 4-1 117-1 2-4 1-37 1h-596l-2-3v-97l1-25 1-2z" fill="#4B82A1"/>
<path transform="translate(706,1343)" d="m0 0h306l104 1 3 1 1 2-1 121-2 1-14 1-263 1h-133l-3-2-1-3-1-33 1-83 1-6z" fill="#4B82A2"/>
<path transform="translate(352,200)" d="m0 0h1v1651h-1l-1-12-1-32v-1562l1-35z" fill="#0F1518"/>
<path transform="translate(706,1343)" d="m0 0h63l91 1v1h-155v123l-2-2-1-33 1-83 1-6z" fill="#213540"/>
<path transform="translate(706,1087)" d="m0 0h43l30 1v1h-74l1 125h-2l-1-2-1-12v-59l1-47 1-6z" fill="#1F323D"/>
<path transform="translate(704,1360)" d="m0 0h1v108l-2-2-1-33 1-72z" fill="#131C21"/>
</svg>
