<svg xmlns="http://www.w3.org/2000/svg" width="37.595" height="37.595" viewBox="0 0 37.595 37.595">
  <g id="vuesax_bold_global-edit" data-name="vuesax/bold/global-edit" transform="translate(-748 -188)">
    <g id="global-edit" transform="translate(748 188)">
      <path id="Vector" d="M0,0H37.595V37.595H0Z" transform="translate(37.595 37.595) rotate(180)" fill="none" opacity="0"/>
      <path id="Vector-2" data-name="Vector" d="M7.425,1.051l-6.5,6.5A2.369,2.369,0,0,0,.376,8.633l-.36,2.491A1.165,1.165,0,0,0,1.41,12.518l2.491-.36a2.226,2.226,0,0,0,1.081-.548l6.5-6.5c1.112-1.112,1.645-2.428,0-4.073C9.853-.594,8.553-.077,7.425,1.051Z" transform="translate(21.914 21.929)" fill="#005256"/>
      <path id="Vector-3" data-name="Vector" d="M0,0A5.892,5.892,0,0,0,4.073,4.073" transform="translate(28.415 23.904)" fill="#005256"/>
      <path id="Vector-4" data-name="Vector" d="M.031,0C.031.047,0,.11,0,.157A14.872,14.872,0,0,0,6.673,6.83c.047,0,.11-.031.157-.031A44.962,44.962,0,0,1,5.592,1.253,47.608,47.608,0,0,1,.031,0Z" transform="translate(3.149 22.917)" fill="#005256"/>
      <path id="Vector-5" data-name="Vector" d="M7.033,7.033A14.881,14.881,0,0,0,0,0,44.735,44.735,0,0,1,1.347,5.686,42.215,42.215,0,0,1,7.033,7.033Z" transform="translate(22.839 3.039)" fill="#005256"/>
      <path id="Vector-6" data-name="Vector" d="M0,6.908A45.611,45.611,0,0,1,5.7,5.561,47.763,47.763,0,0,1,6.939.031C6.892.031,6.83,0,6.783,0A14.944,14.944,0,0,0,0,6.908Z" transform="translate(3.023 3.164)" fill="#005256"/>
      <path id="Vector-7" data-name="Vector" d="M10.4,6.83A42.687,42.687,0,0,0,8.882.783,2.078,2.078,0,0,1,8.835.454,15.394,15.394,0,0,0,5.2,0a14.75,14.75,0,0,0-3.65.47A2.579,2.579,0,0,1,1.519.8,44.71,44.71,0,0,0,0,6.83,48.1,48.1,0,0,1,10.4,6.83Z" transform="translate(11.247 1.566)" fill="#005256"/>
      <path id="Vector-8" data-name="Vector" d="M6.83,0A44.928,44.928,0,0,0,.783,1.519a2.162,2.162,0,0,1-.313.047A14.625,14.625,0,0,0,0,5.2,14.75,14.75,0,0,0,.47,8.85,2.578,2.578,0,0,1,.8,8.882,44.343,44.343,0,0,0,6.845,10.4,47.127,47.127,0,0,1,6.83,0Z" transform="translate(1.566 11.247)" fill="#005256"/>
      <path id="Vector-9" data-name="Vector" d="M6.375,1.566a1.281,1.281,0,0,1-.329-.047A44.928,44.928,0,0,0,0,0,46.051,46.051,0,0,1,0,10.386,42.687,42.687,0,0,0,6.047,8.866a2.132,2.132,0,0,1,.329-.031,15.53,15.53,0,0,0,.47-3.65A14.693,14.693,0,0,0,6.375,1.566Z" transform="translate(24.484 11.247)" fill="#005256"/>
      <path id="Vector-10" data-name="Vector" d="M0,.016A42.159,42.159,0,0,0,1.519,6.062a2.132,2.132,0,0,1,.031.329,15.526,15.526,0,0,0,3.65.454,14.625,14.625,0,0,0,3.634-.47,2.767,2.767,0,0,1,.047-.329A44.343,44.343,0,0,0,10.4,0,48.032,48.032,0,0,1,5.2.329,48.017,48.017,0,0,1,0,.016Z" transform="translate(11.247 24.484)" fill="#005256"/>
      <path id="Vector-11" data-name="Vector" d="M.352.352a44.169,44.169,0,0,0,0,11.137,44.169,44.169,0,0,0,11.137,0,44.169,44.169,0,0,0,0-11.137A44.169,44.169,0,0,0,.352.352Z" transform="translate(10.534 10.534)" fill="#005256"/>
    </g>
  </g>
</svg>
