<?xml version="1.0" encoding="utf-8"?>
<!-- Generator: Adobe Illustrator 23.0.3, SVG Export Plug-In . SVG Version: 6.00 Build 0)  -->
<svg version="1.1" id="Layer_1" xmlns="http://www.w3.org/2000/svg" xmlns:xlink="http://www.w3.org/1999/xlink" x="0px" y="0px"
	 viewBox="0 0 512 512" style="enable-background:new 0 0 512 512;" xml:space="preserve">
<style type="text/css">
	.st0{fill-rule:evenodd;clip-rule:evenodd;fill:#1C9667;}
</style>
<g>
	<path class="st0" d="M104.3,498.6l-19.8,0c-10.9,0-19.8-8.9-19.8-19.8l-0.2-354l-41.5,0c-8,0-12.4-9.1-7.6-15.4l71.1-92.1
		c3.8-5,11.3-5,15.1,0l71.2,92c4.9,6.3,0.4,15.4-7.6,15.4l-41.5,0l0.2,354C124.1,489.7,115.2,498.6,104.3,498.6z M427.8,498.4
		l-19.8,0c-10.9,0-19.8-8.9-19.8-19.8l-0.1-119.3l-41.5,0c-8,0-12.4-9.1-7.6-15.4l71.1-92.1c3.8-5,11.3-5,15.1,0l71.2,92
		c4.9,6.3,0.4,15.4-7.6,15.4l-41.5,0l0.1,119.3C447.6,489.5,438.7,498.4,427.8,498.4z M266.1,498.5c10.9,0,19.8-8.9,19.8-19.8
		L285.7,242l41.4,0c8,0,12.4-9.1,7.6-15.4l-71.2-92c-3.8-4.9-11.3-4.9-15.1,0l-71.1,92.1c-4.9,6.3-0.4,15.4,7.6,15.4l41.5,0
		l0.2,236.6c0,10.9,8.9,19.8,19.8,19.8L266.1,498.5L266.1,498.5z"/>
</g>
</svg>
