<svg xmlns="http://www.w3.org/2000/svg" version="1.1" xmlns:xlink="http://www.w3.org/1999/xlink" width="512" height="512" x="0" y="0" viewBox="0 0 512 512" style="enable-background:new 0 0 512 512" xml:space="preserve" class=""><g><path fill="#CD3151" fill-rule="evenodd" d="M407.87 13.5h19.797c10.902 0 19.795 8.894 19.795 19.795v354.02h41.455c7.954-.002 12.428 9.104 7.564 15.398l-71.152 92.075c-3.823 4.949-11.297 4.948-15.121 0l-71.15-92.075c-4.865-6.295-.389-15.402 7.566-15.398h41.451V33.295c0-10.902 8.893-19.795 19.795-19.795zm-323.537 0h19.796c10.902 0 19.796 8.894 19.796 19.795v119.271h41.453c7.955 0 12.428 9.104 7.564 15.398l-71.15 92.075c-3.824 4.949-11.299 4.948-15.123 0L15.52 167.965c-4.865-6.295-.39-15.403 7.566-15.398h41.451V33.295c0-10.902 8.893-19.795 19.796-19.795zm161.769 0c-10.902 0-19.796 8.893-19.796 19.795V269.94h-41.45c-7.956-.005-12.433 9.104-7.567 15.398l71.15 92.075c3.824 4.948 11.298 4.949 15.123 0l71.15-92.075c4.864-6.294.391-15.4-7.564-15.399h-41.453V33.294c0-10.901-8.895-19.795-19.797-19.795h-19.796z" clip-rule="evenodd" opacity="1" data-original="#ef233c" class=""></path></g></svg>