<?xml version="1.0" encoding="UTF-8"?>
<svg version="1.1" viewBox="0 0 1600 1600" width="1280" height="1280" xmlns="http://www.w3.org/2000/svg">
<path transform="translate(1180,567)" d="m0 0 2 1 1 3v395l26-5h20l10 3 13 7 9 8 8 11 7 14 3 13v15l-4 14-9 14-12 14-8 8-7 8-11 10-5 5-2 3h-2l-2 4-28 28-8 7-22 22-8 7-7 8-16 17-36 36-8 7-14 14-12 9-11 7-9 3-12 2-14-1-15-5-9-5-12-10-9-12-5-10-2-9v-11l2-15 4-13 1-5h-395l-5-1 2-4 7-8 86-86 8-7 20-20 2-1 345-1 14-1 2-1 1-344 2-17 4-6 105-105 1-2h2l2-4 8-7z" fill="#4A7FA0"/>
<path transform="translate(540,567)" d="m0 0 2 1 1 3v395l26-5h20l10 3 13 7 10 9 7 10 7 14 3 12v16l-3 11-5 10-10 13-12 14h-2l-2 4-12 12h-2v2h-2l-2 4h-2l-2 4-37 37-8 7-19 19h-2l-1 3-18 18-7 8-40 40-8 7-14 14-14 10-13 7-16 3-14-1-15-5-10-6-10-8-10-13-6-12-1-6v-13l2-14 5-18h-48l-223-1-16-3-12-7-11-10-9-12-8-10v-42l10-11 9-11 10-9 10-7 7-3 16-1 335-1 14-1 2-1 1-337 1-19 3-9 23-23 5-6 8-7 71-71 7-8 5-5z" fill="#4A7FA0"/>
<path transform="translate(1096)" d="m0 0h48l7 8 12 11 8 9 7 11 4 11 1 12v264l26-5h20l10 3 14 8 7 6 9 12 7 14 3 13v14l-3 12-6 11-6 8-9 11-9 9-1 2h-2l-2 4-15 14-49 49-8 7-10 10-7 6-9 11-13 13-4 5-8 7-11 12-8 7-24 24-8 7-12 9-10 6-12 3-14 1-15-3-12-5-10-8-8-7-7-10-5-10-2-10v-11l2-15 5-17h-395l-5-1 2-4 7-8 85-85 8-7 19-19 4-3 11-1h335l12-1 3-1 1-318 1-37 2-13 5-9 7-9 9-10 11-9z" fill="#4A7FA0"/>
<path transform="translate(456)" d="m0 0h48l7 8 12 11 8 9 7 11 4 11 1 12v264l26-5h20l10 3 13 7 9 8 9 13 6 12 3 13v14l-3 12-5 10-10 13-9 10-15 16-8 7-53 53-8 7-13 13h-2l-2 4-15 16-11 12-8 7-9 10-10 9-25 25-8 7-15 10-8 4-16 3-14-1-18-6-11-8-8-7-8-11-6-12-1-6v-13l2-15 5-17h-54l-217-1-16-3-11-6-12-11-9-12-8-10v-42l7-7 8-10 9-10 16-12 6-2 15-1 336-1 13-1 3-1 1-317 1-37 2-14 5-9 8-10 9-10 10-8z" fill="#4A7FA0"/>
<path transform="translate(1178,1208)" d="m0 0h4l1 3v296l-1 40-3 11-6 11-12 14-10 7-16 9-3 1h-28l-7-3-10-9-14-10-8-8-7-14-2-12-2-53v-146l2-13 6-8 103-103 1-2h2l2-4z" fill="#4A7FA0"/>
<path transform="translate(540,1207)" d="m0 0 2 1 1 4v290l-1 45-3 12-7 12-12 13-19 12-9 4h-30l-8-6-11-9-12-9-8-9-5-12-2-12-2-54v-144l2-13 6-8 103-103 1-2h2l2-4 8-7z" fill="#4A7FA0"/>
<path transform="translate(1336,415)" d="m0 0h150l38 1 19 1 16 3 12 7 7 6 9 11 12 16 1 2v36l-8 10-8 11-11 12-10 7-16 3-18 1-193 1h-124l-5-1 2-4 7-8 87-87 8-7 7-8 8-7 6-5z" fill="#4A7FA0"/>
<path transform="translate(1339,1055)" d="m0 0h145l40 1 28 2 11 4 10 7 5 4 9 11 11 15 2 3v36l-8 10-8 11-11 12-10 7-16 3-19 1-195 1h-121l-6-1 6-8 94-94 7-6 6-7h2l2-4 9-7z" fill="#4A7FA0"/>
<path transform="translate(1058,688)" d="m0 0 2 1-2 340-1 26-4 3-15 1-84 1h-216l-18-1h-27l-1-3 345-1 14-1 2-1 1-344 2-17z" fill="#356C96"/>
<path transform="translate(583,1163)" d="m0 0 5 1 4 6v2h2l2 5 10 1h213l19-1 12 1 2-1h104l4 1 2 4-2 1h-388l-5-1 2-4 7-8z" fill="#386E97"/>
<path transform="translate(582,524)" d="m0 0 6 1 1 7h2l1 6h366l2 1v2l2 1-1 1h-389l-5-1 2-4 7-8z" fill="#3C7199"/>
<path transform="translate(416,51)" d="m0 0h1v344l-1 20-1 1h-10v-1l8-2 1-317 1-37z" fill="#16222A"/>
<path transform="translate(1056,51)" d="m0 0h1v334l-1 29-4 2h-7v-1l8-2 1-318 1-37z" fill="#16222A"/>
<path transform="translate(1058,1329)" d="m0 0h1v225l-2-2-1-8-2-53v-146l2-13z" fill="#356C95"/>
<path transform="translate(415,700)" d="m0 0h1l1 127v201l-1 26-3 1 1-339z" fill="#16222B"/>
<path transform="translate(416,395)" d="m0 0h1v21l-1 1-18 1-151 1h-36l-54 1h-35l-41-1h-23l-11-1v-1l14-1 354-1z" fill="#33678F"/>
<path transform="translate(416,1028)" d="m0 0h1v27l-2 2-13 1-191 1h-127l-35-1v-1l13-1 335-1 18-1z" fill="#356B95"/>
<path transform="translate(1055,701)" d="m0 0h1l1 124v184l-1 44-2 1v-345z" fill="#17242D"/>
<path transform="translate(1056,385)" d="m0 0h1v30l-2 2-9 1-252 1-100-1 1-2 8-1h349l3-1z" fill="#366D96"/>
<path transform="translate(1339,1055)" d="m0 0h145l40 1 19 1 8 2v1h-120l-31-1-69-1 1-2z" fill="#3A7098"/>
<path transform="translate(1222,1164)" d="m0 0 6 1 3 4v3l4 2-1 3 10 1 36 1 23 1 20 1v1h-117l6-8z" fill="#356C96"/>
<path transform="translate(418,689)" d="m0 0h1v62l-1 265h-1l-1-189-1-130 2-7z" fill="#356C96"/>
<path transform="translate(1336,415)" d="m0 0h150l38 1 15 1v1l-37 1h-86l-18-1h-48l-16-1z" fill="#3C7299"/>
<path transform="translate(1222,524)" d="m0 0 6 1 4 8v5l16 1h19l18 1 22 1v1h-100l2-4 7-8z" fill="#356C96"/>
<path transform="translate(415,1357)" d="m0 0h1l1 43v137h-1l-1-16-1-32v-129z" fill="#1B2C39"/>
<path transform="translate(540,567)" d="m0 0 2 1 1 3v156l-1 8h-1l-1-123-1-23-3-13-1-2 3-5z" fill="#386F97"/>
<path transform="translate(1055,1340)" d="m0 0h1l1 124v73h-1l-1-14-1-32v-146z" fill="#1E3341"/>
<path transform="translate(417,1330)" d="m0 0h2v37l-1 181h-1l-1-11v-180l-2-1v-11l2-13z" fill="#32648A"/>
<path transform="translate(1180,567)" d="m0 0 2 1 1 3v89l-1 35h-1l-1-84-1-22-2-6-3-12z" fill="#356C96"/>
<path transform="translate(1178,1208)" d="m0 0h4l1 3v98l-2 3-1-73-1-13-3-8v-2h-2l1-4z" fill="#356C96"/>
<path transform="translate(540,1207)" d="m0 0 2 1 1 4v95l-2-1v-19l-1-47-2-17-3-8-1-4z" fill="#356C96"/>
<path transform="translate(1056,385)" d="m0 0h1v30l-2 2-9 1h-115l1-2 120-1 3-1z" fill="#2F5E82"/>
<path transform="translate(542,727)" d="m0 0h1v169l-1 18h-1l-1-5v-46l1-29z" fill="#9DB8CB"/>
<path transform="translate(1516,1178)" d="m0 0 34 1-3 2h-88l2-2z" fill="#376E97"/>
<path transform="translate(268,1179)" d="m0 0h31l13 2 1-2 4 3h-56v-2z" fill="#356C96"/>
<path transform="translate(416,1028)" d="m0 0h1v27l-2 2-13 1h-18l1-2 30-2z" fill="#366D96"/>
<path transform="translate(635,1008)" d="m0 0 3 3 1 5v16l-1 5h-2l-1-15-2-9z" fill="#3D739A"/>
<path transform="translate(541,914)" d="m0 0h1v44h-1l-2-23 1-20z" fill="#356C96"/>
<path transform="translate(1170,1217)" d="m0 0h2v6l-6 4h-2v2h-2v2h-5l2-4z" fill="#376E97"/>
<path transform="translate(1276,1010)" d="m0 0 2 1 1 6v15l-2 2-2-6v-15z" fill="#3F749B"/>
<path transform="translate(1025,634)" d="m0 0 8 1v3l-14 1-9-2v-1z" fill="#40749B"/>
<path transform="translate(1056,385)" d="m0 0h1v30l-2 2-9 1h-10l2-3h14l3-1z" fill="#356C96"/>
<path transform="translate(416,1028)" d="m0 0h1v27l-2 2h-7l-1-2 8-1z" fill="#33678E"/>
<path transform="translate(1170,577)" d="m0 0 2 1-1 4-7 5h-3l2-4z" fill="#376D97"/>
<path transform="translate(529,1218)" d="m0 0h2l-1 5-4 2h-3v3h-3l2-4z" fill="#376E97"/>
<path transform="translate(637,375)" d="m0 0 2 2v14l-2 3-1-9z" fill="#42779C"/>
<path transform="translate(1017,1275)" d="m0 0 9 3v1l-14-1-1-2z" fill="#5181A4"/>
<path transform="translate(1038,415)" d="m0 0h7l5 1-4 2h-10z" fill="#376D97"/>
<path transform="translate(415,407)" d="m0 0h1v8l-1 1h-10v-1l8-2z" fill="#182731"/>
<path transform="translate(1176,1209)" d="m0 0 2 1-4 4-1 3-5 2 2-4zm-10 10 2 1-2 1z" fill="#44789D"/>
</svg>
