<svg xmlns="http://www.w3.org/2000/svg" version="1.1" xmlns:xlink="http://www.w3.org/1999/xlink" width="512" height="512" x="0" y="0" viewBox="0 0 512 512" style="enable-background:new 0 0 512 512" xml:space="preserve" class=""><g><path fill="#4832B8" fill-rule="evenodd" d="M427.1 294.2c.1 2.6-1.9 4.8-4.5 4.9s-4.8-1.9-4.9-4.5c-1.3-29.4-10.4-56.8-25.4-80.1-15.4-24-37-43.6-62.6-56.7-2.3-1.2-3.2-4-2-6.3s4-3.2 6.3-2.1c27 13.8 49.9 34.6 66.2 60 15.8 24.6 25.5 53.6 26.9 84.8zM178.6 149.4c2.3-1.2 5.1-.3 6.3 2.1 1.2 2.3.3 5.1-2.1 6.3-25.5 13-47.1 32.7-62.6 56.7-15 23.3-24.2 50.7-25.4 80.1-.1 2.6-2.3 4.6-4.9 4.5s-4.6-2.3-4.5-4.9c1.4-31.2 11.1-60.2 26.9-84.8 16.4-25.4 39.2-46.2 66.3-60zm-30.1 285.1c-2-1.6-2.3-4.6-.7-6.6s4.6-2.3 6.6-.7c14.1 11.5 30.3 20.6 47.8 26.8 16.9 6 35.1 9.2 54 9.2s37.1-3.3 54-9.2c17.5-6.2 33.6-15.4 47.8-26.8 2-1.6 5-1.3 6.6.7s1.3 5-.7 6.6c-15 12.2-32 21.9-50.6 28.4-17.9 6.3-37.1 9.8-57.1 9.8s-39.3-3.5-57.1-9.8c-18.5-6.5-35.6-16.2-50.6-28.4z" clip-rule="evenodd" opacity="0.8705882352941177" data-original="#b5d5f5" class=""></path><path fill="#4832B8" d="M318.8 319c-2.4 1.1-5.2 0-6.2-2.4s0-5.2 2.4-6.2l75.6-33.6c1.3-.6 2.7-.5 3.8 0l75.5 33.6c2.4 1.1 3.4 3.9 2.4 6.2s-3.9 3.4-6.2 2.4l-75.6 34.7z" opacity="1" data-original="#4b7ed4" class=""></path><g fill-rule="evenodd" clip-rule="evenodd"><path fill="#4832B8" d="m394.4 345-75.2-34.5c-.7-.4-1.5-.6-2.3-.6-2.6 0-4.7 2.1-4.7 4.7v96c0 1.8 1 3.5 2.8 4.3l75.2 34.5c.7.4 1.5.6 2.3.6 2.6 0 4.7-2.1 4.7-4.7v-96c-.1-1.8-1.1-3.5-2.8-4.3z" opacity="0.8705882352941177" data-original="#538ce0" class=""></path><path fill="#4832B8" d="m390.4 345 75.2-34.5c.7-.4 1.5-.6 2.3-.6 2.6 0 4.7 2.1 4.7 4.7v96c0 1.8-1 3.5-2.8 4.3l-75.2 34.5c-.7.4-1.5.6-2.3.6-2.6 0-4.7-2.1-4.7-4.7v-96c.1-1.8 1.1-3.5 2.8-4.3z" opacity="0.9607843137254902" data-original="#5c9cee" class=""></path></g><path fill="#4832B8" d="M182.6 83.3c-2.4 1.1-5.2 0-6.2-2.4-1.1-2.4 0-5.2 2.4-6.2l75.6-33.6c1.3-.6 2.7-.5 3.8 0l75.5 33.6c2.4 1.1 3.4 3.8 2.4 6.2s-3.9 3.4-6.2 2.4L254.3 118z" opacity="1" data-original="#4b7ed4" class=""></path><g fill-rule="evenodd" clip-rule="evenodd"><path fill="#4832B8" d="M258.2 109.4 183 74.9c-.7-.4-1.5-.6-2.3-.6-2.6 0-4.7 2.1-4.7 4.7v96c0 1.8 1 3.5 2.8 4.3l75.2 34.5c.7.4 1.5.6 2.3.6 2.6 0 4.7-2.1 4.7-4.7v-95.9c0-1.9-1-3.6-2.8-4.4z" opacity="0.8705882352941177" data-original="#538ce0" class=""></path><path fill="#4832B8" d="m254.3 109.4 75.2-34.5c.7-.4 1.5-.6 2.3-.6 2.6 0 4.7 2.1 4.7 4.7v96c0 1.8-1 3.5-2.8 4.3l-75.2 34.5c-.7.4-1.5.6-2.3.6-2.6 0-4.7-2.1-4.7-4.7v-95.9c.1-1.9 1.1-3.6 2.8-4.4z" opacity="0.9607843137254902" data-original="#5c9cee" class=""></path></g><path fill="#4832B8" d="M46.5 319c-2.4 1.1-5.2 0-6.2-2.4-1.1-2.4 0-5.2 2.4-6.2l75.6-33.6c1.3-.6 2.7-.5 3.8 0l75.6 33.6c2.4 1.1 3.4 3.9 2.4 6.2s-3.9 3.4-6.2 2.4l-75.6 34.7z" opacity="1" data-original="#4b7ed4" class=""></path><g fill-rule="evenodd" clip-rule="evenodd"><path fill="#4832B8" d="m122.1 345-75.2-34.5c-.7-.4-1.5-.6-2.3-.6-2.6 0-4.7 2.1-4.7 4.7v96c0 1.8 1 3.5 2.8 4.3l75.2 34.5c.7.4 1.5.6 2.3.6 2.6 0 4.7-2.1 4.7-4.7v-96c-.1-1.8-1.1-3.5-2.8-4.3z" opacity="0.8705882352941177" data-original="#538ce0" class=""></path><path fill="#4832B8" d="m118.2 345 75.2-34.5c.7-.4 1.5-.6 2.3-.6 2.6 0 4.7 2.1 4.7 4.7v96c0 1.8-1 3.5-2.8 4.3l-75.2 34.5c-.7.4-1.5.6-2.3.6-2.6 0-4.7-2.1-4.7-4.7v-96c0-1.8 1-3.5 2.8-4.3z" opacity="0.9607843137254902" data-original="#5c9cee" class=""></path></g></g></svg>