<svg xmlns="http://www.w3.org/2000/svg" version="1.1" xmlns:xlink="http://www.w3.org/1999/xlink" width="512" height="512" x="0" y="0" viewBox="0 0 512 512" style="enable-background:new 0 0 512 512" xml:space="preserve" class=""><g><path fill="#FFFFFF" d="M493.438 263.469c0 4.207-1.587 8.336-4.842 11.59L387.701 376.034c-9.526 9.447-21.433 16.114-34.532 18.972-40.008 8.97-81.049 12.542-123.28 9.764-20.004-1.27-39.532 6.589-53.742 20.719l-12.622 12.701-86.368-87.241 66.284-55.409c5.477-4.605 11.431-8.494 18.02-11.192 33.102-13.654 66.284-5.082 82.716.952 8.177 3.096 16.829 4.605 25.64 4.605h63.188a37.37 37.37 0 0 1 26.514 10.954c3.572 3.573 6.43 7.78 8.256 12.464l67.078-61.124c14.765-13.495 37.151-14.051 52.63-1.35 3.971 3.253 5.955 7.937 5.955 12.62z" opacity="1" data-original="#ffffff" class=""></path><path fill="#4832B8" d="m23.608 402.845 94.236 94.237c6.681 6.682 17.514 6.681 24.196 0l28.229-28.229c6.681-6.681 6.681-17.514 0-24.196L76.033 350.42c-6.681-6.681-17.514-6.681-24.196 0l-28.229 28.229c-6.682 6.681-6.682 17.514 0 24.196z" opacity="1" data-original="#47aacb" class=""></path><path fill="#A296DB" d="m170.273 468.832-28.26 28.26c-6.668 6.668-17.464 6.668-24.132 0l-94.306-94.227c-6.668-6.669-6.668-17.464-.079-24.133l75.572 75.572c17.067 16.988 44.692 16.988 61.759 0l9.447-9.525.079-.079c6.589 6.747 6.589 17.463-.08 24.132z" opacity="1" data-original="#90cddf" class=""></path><path fill="#4832B8" d="m378.371 174.918 4.163 24.536c2.712 15.981-14.08 28.132-28.412 20.562l-21.836-11.534a19.555 19.555 0 0 0-18.252-.008l-21.909 11.55c-14.346 7.563-31.133-4.619-28.392-20.603l4.196-24.469a19.552 19.552 0 0 0-5.639-17.322l-17.695-17.211c-11.621-11.303-5.231-31.026 10.81-33.367l24.474-3.572a19.557 19.557 0 0 0 14.701-10.674l11.023-22.267c7.187-14.519 27.9-14.502 35.063.028l10.952 22.214a19.554 19.554 0 0 0 14.715 10.702l24.516 3.578c16.03 2.34 22.427 22.04 10.828 33.35L384 157.647a19.551 19.551 0 0 0-5.629 17.271z" opacity="1" data-original="#47aacb" class=""></path><path fill="#A296DB" d="m401.673 140.427-17.703 17.226c-4.604 4.445-6.668 10.955-5.636 17.226l4.207 24.608c2.699 15.956-14.05 28.101-28.419 20.56l-21.83-11.589a19.547 19.547 0 0 0-18.258 0l-21.91 11.589c-13.733 7.224-29.689-3.572-28.657-18.575 2.62-.159 5.24-.873 7.859-2.223l21.91-11.589a19.547 19.547 0 0 1 18.258 0l21.83 11.589c14.368 7.542 31.118-4.604 28.419-20.56l-4.207-24.609c-1.032-6.271 1.032-12.779 5.636-17.225l17.703-17.225c3.81-3.732 5.715-8.415 5.954-13.099l4.048.556c16.035 2.302 22.385 21.988 10.796 33.34z" opacity="1" data-original="#90cddf" class=""></path><g fill="#3A3D3F"><path d="M492.502 244.744c-18.342-15.101-45.424-14.435-62.994 1.581l-59.672 54.374c-8.495-11.657-21.954-18.76-36.854-18.76h-63.169c-7.961 0-15.667-1.364-22.9-4.047-17.838-6.613-53.033-15.535-88.499-.892-6.752 2.791-13.489 6.961-20.028 12.419l-61.774 51.603c-9.602-5.655-22.158-4.451-30.388 3.786l-28.23 28.226c-9.787 9.779-9.794 25.634 0 35.42l94.239 94.243c9.751 9.758 25.647 9.757 35.42 0l28.226-28.233c9.768-9.768 9.768-25.652 0-35.42l-.997-.997 6.908-6.91c12.849-12.845 30.144-19.613 47.552-18.435 44.122 2.881 132.681.23 163.935-31.047l100.957-100.957c10.132-10.124 9.341-26.823-1.732-35.954zM164.654 463.239l-28.222 28.226c-3.582 3.574-9.403 3.566-12.977.008L29.22 397.229l-.004-.008c-3.564-3.548-3.596-9.354.004-12.962l28.23-28.226a9.175 9.175 0 0 1 12.969 0l94.235 94.235a9.168 9.168 0 0 1 0 12.971zm318.355-193.766L382.052 370.43c-27.2 27.2-113.865 28.891-151.679 26.427-21.923-1.372-43.73 6.977-59.808 23.055l-6.909 6.909-74.803-75.338 59.707-49.877c5.295-4.419 10.648-7.76 15.911-9.931 30.447-12.566 61.258-4.706 76.913 1.101 9.008 3.341 18.574 5.039 28.427 5.039h63.169c16.649 0 29.744 13.553 29.613 29.768-.035 4.977-4.19 9.031-9.26 9.031H211.357c-4.384 0-7.938 3.55-7.938 7.938s3.554 7.938 7.938 7.938h141.977c13.764 0 25.04-11.124 25.136-24.791a45.095 45.095 0 0 0-1.519-12.008l63.246-57.63c11.764-10.737 29.904-11.186 42.211-1.047 3.866 3.181 4.109 8.943.601 12.459zM256.758 163.323a11.602 11.602 0 0 1 3.345 10.287l-4.198 24.474c-3.836 22.366 19.658 39.624 39.92 28.962l21.911-11.551a11.655 11.655 0 0 1 10.841 0l21.834 11.535c20.156 10.659 43.756-6.463 39.947-28.9l-4.163-24.536a11.625 11.625 0 0 1 3.345-10.264l17.679-17.241c16.299-15.898 7.299-43.604-15.229-46.885l-24.512-3.574a11.621 11.621 0 0 1-8.741-6.365l-10.954-22.21c-10.084-20.453-39.214-20.421-49.296-.039l-11.024 22.272a11.613 11.613 0 0 1-8.733 6.334l-24.474 3.574c-22.539 3.282-31.532 31.026-15.198 46.908zm-.205-48.42 24.466-3.574a27.455 27.455 0 0 0 20.671-15l11.024-22.272c4.267-8.617 16.564-8.626 20.83.023l10.954 22.21a27.48 27.48 0 0 0 20.691 15.047l24.512 3.574c9.536 1.405 13.344 13.078 6.434 19.815l-17.675 17.241a27.486 27.486 0 0 0-7.915 24.28l4.163 24.536c1.614 9.52-8.33 16.698-16.876 12.217l-21.838-11.535a27.449 27.449 0 0 0-25.66-.016L288.423 213c-8.554 4.509-18.501-2.733-16.865-12.233l4.198-24.474a27.466 27.466 0 0 0-7.93-24.35l-17.694-17.218c-6.926-6.743-3.121-18.417 6.421-19.822zM323.124 29.295a7.935 7.935 0 0 0 7.938-7.938V9.923c0-4.388-3.554-7.938-7.938-7.938s-7.938 3.55-7.938 7.938v11.434a7.935 7.935 0 0 0 7.938 7.938zM256.436 41.35c2.209 3.835 7.09 5.074 10.841 2.907a7.935 7.935 0 0 0 2.903-10.845l-5.717-9.9c-2.19-3.806-7.054-5.109-10.841-2.907a7.935 7.935 0 0 0-2.903 10.845zM205.648 82.336l9.9 5.713c3.804 2.19 8.657.882 10.845-2.907a7.943 7.943 0 0 0-2.907-10.845l-9.9-5.713a7.932 7.932 0 0 0-10.845 2.907 7.944 7.944 0 0 0 2.907 10.845zM192.058 148.927h11.431c4.384 0 7.938-3.55 7.938-7.938s-3.554-7.938-7.938-7.938h-11.431c-4.384 0-7.938 3.551-7.938 7.938s3.554 7.938 7.938 7.938zM434.825 140.989a7.935 7.935 0 0 0 7.938 7.938h11.431c4.384 0 7.938-3.55 7.938-7.938s-3.554-7.938-7.938-7.938h-11.431a7.935 7.935 0 0 0-7.938 7.938zM430.705 88.049l9.9-5.713a7.944 7.944 0 0 0 2.907-10.845c-2.198-3.791-7.047-5.109-10.845-2.907l-9.9 5.713a7.944 7.944 0 0 0-2.907 10.845 7.946 7.946 0 0 0 10.845 2.907zM378.975 44.257c3.757 2.171 8.635.923 10.841-2.907l5.717-9.9a7.936 7.936 0 0 0-2.903-10.845 7.917 7.917 0 0 0-10.841 2.907l-5.717 9.9a7.935 7.935 0 0 0 2.903 10.845z" fill="#4832B8" opacity="1" data-original="#3a3d3f" class=""></path></g></g></svg>