<svg xmlns="http://www.w3.org/2000/svg" version="1.1" xmlns:xlink="http://www.w3.org/1999/xlink" width="512" height="512" x="0" y="0" viewBox="0 0 512 512" style="enable-background:new 0 0 512 512" xml:space="preserve" class=""><g><path d="M404.758 186.436c19.053 32.871 29.124 70.433 29.124 108.623 0 57.947-22.566 112.426-63.541 153.4s-95.454 63.54-153.4 63.54c-57.947 0-112.426-22.566-153.4-63.54C22.566 407.485 0 353.006 0 295.059s22.566-112.426 63.541-153.4 95.453-63.541 153.4-63.541c38.192 0 75.754 10.071 108.624 29.124a8 8 0 0 1-8.023 13.843c-30.435-17.642-65.222-26.966-100.6-26.966C106.142 94.118 16 184.26 16 295.059S106.142 496 216.941 496s200.941-90.142 200.941-200.94c0-35.376-9.325-70.163-26.967-100.6a8 8 0 0 1 2.91-10.933 8 8 0 0 1 10.933 2.909zm104.899-84.384-67.886 67.886a8 8 0 0 1-7.727 2.071l-65.253-17.485-146.193 146.192c-1.562 1.562-3.609 2.343-5.657 2.343s-4.095-.781-5.657-2.343a8 8 0 0 1 0-11.313L357.477 143.21l-17.485-65.253a8 8 0 0 1 2.071-7.728l67.886-67.886a8.002 8.002 0 0 1 13.384 3.586l17.484 65.253 65.254 17.484a8 8 0 0 1 3.586 13.386zm-21.112-1.516-56.331-15.094a8 8 0 0 1-5.657-5.657l-15.094-56.33-54.822 54.822 16.289 60.792 60.792 16.289zM216.941 183c16.658 0 32.692 3.572 47.656 10.616a8.002 8.002 0 0 0 10.645-3.831 7.999 7.999 0 0 0-3.831-10.645C254.3 171.085 235.973 167 216.941 167c-70.612 0-128.059 57.447-128.059 128.059s57.447 128.059 128.059 128.059S345 365.671 345 295.059c0-19.029-4.084-37.356-12.14-54.47a8 8 0 0 0-14.477 6.813c7.044 14.967 10.616 31 10.616 47.656 0 61.79-50.269 112.059-112.059 112.059s-112.059-50.269-112.059-112.059S155.151 183 216.941 183z" fill="#4832B8" opacity="1" data-original="#000000" class=""></path></g></svg>