                      <svg xmlns="http://www.w3.org/2000/svg" version="1.1" xmlns:xlink="http://www.w3.org/1999/xlink" width="20" x="0" y="0" viewBox="0 0 64 64" style="enable-background:new 0 0 512 512" xml:space="preserve" class=""><g><g data-name="11-Clock"><path d="M32 64A32.036 32.036 0 0 1 0 32a1 1 0 0 1 2 0 30.005 30.005 0 0 0 58.405 9.678l1.893.645A31.994 31.994 0 0 1 32 64zM62.925 40.257l-1.934-.514A30.006 30.006 0 1 0 2.562 26.192L.6 25.808a32.006 32.006 0 1 1 62.325 14.449zM2.062 30.063l-2-.127c.044-.7.112-1.382.2-2.063l1.984.254q-.122.96-.184 1.936z" fill="#4832B8" opacity="1" data-original="#000000" class=""></path><path d="M32 59a27 27 0 1 1 27-27 27.03 27.03 0 0 1-27 27zm0-52a25 25 0 1 0 25 25A25.028 25.028 0 0 0 32 7z" fill="#4832B8" opacity="1" data-original="#000000" class=""></path><path d="M31 6h2v5h-2zM31 53h2v5h-2zM53 31h5v2h-5zM6 31h5v2H6zM25.908 42c-.07 0-.139 0-.209-.008a2.877 2.877 0 0 1-2.175-1.313 3.31 3.31 0 0 1 .4-4.047l5.077-6V17.2a3.006 3.006 0 1 1 6 0v14.282a3 3 0 0 1-.685 1.908l-6.288 7.631a2.843 2.843 0 0 1-2.12.979zM32 16a1.115 1.115 0 0 0-1 1.2v13.433a2 2 0 0 1-.475 1.294l-5.1 6.023a1.351 1.351 0 0 0-.236 1.624.885.885 0 0 0 .661.424.8.8 0 0 0 .665-.285l6.256-7.595a1 1 0 0 0 .229-.636V17.2a1.115 1.115 0 0 0-1-1.2z" fill="#4832B8" opacity="1" data-original="#000000" class=""></path></g></g></svg>
