<svg xmlns="http://www.w3.org/2000/svg" width="22.083" height="22.083" viewBox="31.207 15.208 22.083 22.083"><g data-name="vuesax/linear/document-copy"><path d="M47.77 27.796v3.312c0 4.417-1.767 6.184-6.184 6.184H37.39c-4.416 0-6.183-1.767-6.183-6.184v-4.195c0-4.417 1.767-6.184 6.183-6.184h3.313" stroke-linejoin="round" stroke-linecap="round" stroke-width="1.5" stroke="#1a577d" fill="transparent" data-name="Vector"/><path d="M47.77 27.796h-3.534c-2.65 0-3.533-.883-3.533-3.533v-3.534l7.066 7.067ZM41.807 15.208h4.416M36.728 18.52a3.308 3.308 0 0 1 3.312-3.312h2.893M53.29 21.833v6.835a3.105 3.105 0 0 1-3.102 3.103M53.29 21.833h-3.312c-2.485 0-3.313-.828-3.313-3.312v-3.313l6.625 6.625Z" stroke-linejoin="round" stroke-linecap="round" stroke-width="1.5" stroke="#1a577d" fill="transparent" data-name="Vector"/></g></svg>