<svg xmlns="http://www.w3.org/2000/svg" width="18" height="20" viewBox="33 17.5 18 20"><g data-name="vuesax/linear/clipboard-text"><g data-name="clipboard-text"><path d="M38 27.7h7M38 31.7h4.38M40 21.5h4c2 0 2-1 2-2 0-2-1-2-2-2h-4c-1 0-2 0-2 2s1 2 2 2Z" stroke-linejoin="round" stroke-linecap="round" stroke-width="1.5" stroke="#1a577d" fill="transparent" data-name="Vector"/><path d="M46 19.52c3.33.18 5 1.41 5 5.98v6c0 4-1 6-6 6h-6c-5 0-6-2-6-6v-6c0-4.56 1.67-5.8 5-5.98" stroke-linejoin="round" stroke-linecap="round" stroke-width="1.5" stroke="#1a577d" fill="transparent" data-name="Vector"/></g></g></svg>