<svg xmlns="http://www.w3.org/2000/svg" width="24" height="24" viewBox="0 0 24 24">
  <g id="lock" transform="translate(-108 -316)">
    <path id="Vector" d="M0,0H24V24H0Z" transform="translate(108 316)" fill="#1a577d" opacity="0"/>
    <path id="Vector-2" data-name="Vector" d="M13.5,6.75v2.1a12.984,12.984,0,0,0-1.5-.1v-2C12,3.6,11.11,1.5,6.75,1.5S1.5,3.6,1.5,6.75v2a12.984,12.984,0,0,0-1.5.1V6.75C0,3.85.7,0,6.75,0S13.5,3.85,13.5,6.75Z" transform="translate(113.25 317.25)" fill="#1a577d"/>
    <path id="Vector-3" data-name="Vector" d="M20,5V7c0,4-1,5-5,5H5c-4,0-5-1-5-5V5C0,1.66.7.41,3.25.1A12.984,12.984,0,0,1,4.75,0h10.5a12.984,12.984,0,0,1,1.5.1C19.3.41,20,1.66,20,5Z" transform="translate(110 326)" fill="#1a577d" opacity="0.7"/>
    <g id="Group">
      <path id="Vector-4" data-name="Vector" d="M1,2a1,1,0,0,1-.38-.08,1.032,1.032,0,0,1-.33-.21A1.052,1.052,0,0,1,0,1,1,1,0,0,1,.08.619,1.155,1.155,0,0,1,.29.289,1.032,1.032,0,0,1,.62.079a1,1,0,0,1,1.09.21,1.155,1.155,0,0,1,.21.33A1,1,0,0,1,2,1a1.052,1.052,0,0,1-.29.71A1.052,1.052,0,0,1,1,2Z" transform="translate(115 331.001)" fill="#1a577d"/>
    </g>
    <g id="Group-2" data-name="Group">
      <path id="Vector-5" data-name="Vector" d="M1,1.988A1.033,1.033,0,0,1,.29,1.7a1.155,1.155,0,0,1-.21-.33A1,1,0,0,1,0,.988,1.033,1.033,0,0,1,.29.278a1.047,1.047,0,0,1,1.42,0A1.033,1.033,0,0,1,2,.988a1,1,0,0,1-.08.38,1.155,1.155,0,0,1-.21.33A1.052,1.052,0,0,1,1,1.988Z" transform="translate(119 331.013)" fill="#1a577d"/>
    </g>
    <g id="Group-3" data-name="Group">
      <path id="Vector-6" data-name="Vector" d="M1,1.988A1.052,1.052,0,0,1,.29,1.7,1.033,1.033,0,0,1,0,.988,1.033,1.033,0,0,1,.29.278a1.047,1.047,0,0,1,1.42,0c.04.05.08.1.12.16a.556.556,0,0,1,.09.17.636.636,0,0,1,.06.18,1.5,1.5,0,0,1,.02.2,1.052,1.052,0,0,1-.29.71A1.052,1.052,0,0,1,1,1.988Z" transform="translate(123 331.013)" fill="#1a577d"/>
    </g>
  </g>
</svg>
