<svg xmlns="http://www.w3.org/2000/svg" width="20.626" height="23.748" viewBox="31.925 15.383 20.626 23.748"><g data-name="vuesax/outline/shield-tick"><g data-name="shield-tick"><path d="M42.249 39.13c-1.204 0-2.397-.352-3.335-1.048l-4.748-3.544c-1.259-.939-2.241-2.904-2.241-4.461v-8.215c0-1.7 1.247-3.512 2.848-4.108l5.51-2.065c1.093-.408 2.816-.408 3.909 0l5.51 2.065c1.6.596 2.848 2.407 2.848 4.108v8.204c0 1.568-.982 3.522-2.241 4.46l-4.748 3.545c-.916.707-2.109 1.06-3.312 1.06Zm-1.38-21.884-5.51 2.065c-.939.353-1.767 1.546-1.767 2.562v8.204c0 1.049.74 2.517 1.568 3.136l4.748 3.544c1.27.95 3.412.95 4.692 0l4.748-3.544c.84-.63 1.568-2.087 1.568-3.136v-8.215c0-1.005-.828-2.198-1.766-2.562l-5.51-2.065c-.751-.265-2.032-.265-2.772.011Z" fill="#1a577d" fill-rule="evenodd" data-name="Vector"/><path d="M40.769 29.712a.819.819 0 0 1-.585-.243l-1.778-1.777a.833.833 0 0 1 0-1.17c.32-.321.85-.321 1.17 0l1.193 1.192 4.163-4.163c.32-.32.85-.32 1.17 0 .32.32.32.85 0 1.17l-4.748 4.748a.819.819 0 0 1-.585.243Z" fill="#1a577d" fill-rule="evenodd" data-name="Vector"/></g></g></svg>