<svg xmlns="http://www.w3.org/2000/svg" width="21.175" height="23.347" viewBox="31.441 16.296 21.175 23.347"><g data-name="vuesax/outline/tag-user"><g data-name="tag-user"><path d="M42.029 39.643c-.76 0-1.531-.294-2.107-.87l-1.857-1.834a2.45 2.45 0 0 0-1.726-.706h-.826c-2.247 0-4.072-1.814-4.072-4.04V20.335c0-2.226 1.825-4.04 4.072-4.04h13.031c2.248 0 4.072 1.814 4.072 4.04v11.848c0 2.226-1.824 4.04-4.072 4.04h-.825c-.64 0-1.27.26-1.727.705l-1.857 1.835a2.951 2.951 0 0 1-2.106.88Zm-6.516-21.718c-1.346 0-2.443 1.086-2.443 2.41v11.848c0 1.335 1.097 2.41 2.443 2.41h.826c1.075 0 2.117.435 2.877 1.184l1.857 1.835c.532.521 1.39.521 1.922 0l1.857-1.835a4.123 4.123 0 0 1 2.878-1.184h.814c1.347 0 2.443-1.086 2.443-2.41V20.335c0-1.335-1.096-2.41-2.443-2.41h-13.03Z" fill="#1a577d" fill-rule="evenodd" data-name="Vector"/><path d="M42.105 25.472h-.185a2.912 2.912 0 0 1-2.823-2.932 2.934 2.934 0 0 1 2.932-2.932 2.934 2.934 0 0 1 .097 5.864h-.021Zm-.076-4.235c-.717 0-1.303.586-1.303 1.303 0 .706.553 1.281 1.248 1.303 0-.011.065-.011.141 0a1.298 1.298 0 0 0 1.217-1.303c0-.717-.587-1.303-1.303-1.303ZM42.029 33.073c-1.238 0-2.476-.326-3.442-.966-.913-.609-1.445-1.488-1.445-2.422 0-.934.522-1.824 1.445-2.432 1.932-1.282 4.951-1.282 6.873 0 .912.608 1.444 1.498 1.444 2.421 0 .934-.52 1.814-1.444 2.433-.955.651-2.193.966-3.431.966Zm-2.541-4.463c-.467.315-.717.695-.717 1.075s.26.76.717 1.075c1.379.923 3.692.923 5.071 0 .467-.315.727-.695.717-1.075 0-.38-.261-.76-.717-1.075-1.368-.923-3.692-.923-5.071 0Z" fill="#1a577d" fill-rule="evenodd" data-name="Vector"/></g></g></svg>